# xmcd
#
# Track frame offsets: 
#        150
#        16517
#        26806
#        51396
#        67396
#        99267
#        119630
#        131763
#        158166
#        181591
#        199174
#
# Disc length: 2966 seconds
#
# Revision: 0
# Processed by: cddbd v1.5.2PL0 Copyright (c) Steve Scherf et al.
# Submitted via: ExactAudioCopy v0.95b3
#
DISCID=970b940b
DTITLE=Crazy Chris Kramer and Friends Vol.1 - Guarantee for the Blues
DYEAR=2001
DGENRE=Blues
TTITLE0=I Ain´t Got No Home
TTITLE1=I Wanna Rock
TTITLE2=Power Of The Blind Man
TTITLE3=Maggie Bell
TTITLE4=I´m Searching
TTITLE5=Back Water Blues
TTITLE6=Keep On Rocking The Road
TTITLE7=Rock Me Baby
TTITLE8=You Gotta Change Your Ways
TTITLE9=Been Your Dog
TTITLE10=Guarantee For The Blues
EXTD=
EXTT0=
EXTT1=
EXTT2=
EXTT3=
EXTT4=
EXTT5=
EXTT6=
EXTT7=
EXTT8=
EXTT9=
EXTT10=
PLAYORDER=
